<svg xmlns="http://www.w3.org/2000/svg" style="display: none">
    <symbol 
        id="icon-home"
        viewBox="0 0 36 35" 
        fill="none"
    >
        <path d="M16.6562 26.25C16.6562 26.5401 16.7715 26.8183 16.9766 27.0234C17.1817 27.2285 17.4599 27.3438 17.75 27.3438C18.0401 27.3438 18.3183 27.2285 18.5234 27.0234C18.7285 26.8183 18.8438 26.5401 18.8438 26.25V21.875C18.8438 21.5849 18.7285 21.3067 18.5234 21.1016C18.3183 20.8965 18.0401 20.7812 17.75 20.7812C17.4599 20.7812 17.1817 20.8965 16.9766 21.1016C16.7715 21.3067 16.6562 21.5849 16.6562 21.875V26.25Z" fill="currentColor"/>
        <path fill-rule="evenodd" clip-rule="evenodd" d="M17.7501 1.823C16.7176 1.823 15.7799 2.11904 14.7605 2.61341C13.7776 3.09175 12.6401 3.79758 11.2211 4.67842L8.20675 6.54946C6.86508 7.38362 5.78737 8.05154 4.95904 8.68592C4.10008 9.34217 3.44091 10.013 2.96404 10.8836C2.48862 11.7513 2.27571 12.6759 2.17216 13.7682C2.073 14.8255 2.073 16.1205 2.073 17.7436V20.0959C2.073 22.8726 2.073 25.0645 2.29612 26.778C2.52362 28.5353 3.00487 29.9543 4.08987 31.0757C5.17925 32.203 6.56467 32.7076 8.28258 32.9453C9.94508 33.1772 12.0713 33.1772 14.7488 33.1772H20.7513C23.4288 33.1772 25.5551 33.1772 27.2176 32.9453C28.934 32.7076 30.3209 32.203 31.4118 31.0757C32.4953 29.9543 32.9765 28.5353 33.2055 26.778C33.4272 25.0645 33.4272 22.8726 33.4272 20.0959V17.7436C33.4272 16.1205 33.4272 14.827 33.328 13.7682C33.2259 12.6745 33.0115 11.7513 32.5361 10.8836C32.0593 10.013 31.3986 9.34362 30.5411 8.68592C29.7128 8.05008 28.6365 7.38362 27.2934 6.54946L24.279 4.67842C22.8601 3.79758 21.7226 3.09175 20.7382 2.61341C19.7218 2.11758 18.784 1.823 17.7501 1.823ZM12.3251 6.56842C13.8053 5.64967 14.848 5.00508 15.7186 4.58071C16.5659 4.168 17.1667 4.0105 17.7501 4.0105C18.3334 4.0105 18.9342 4.168 19.7815 4.58071C20.6536 5.00362 21.6949 5.64967 23.1751 6.56842L26.0917 8.37821C27.4932 9.24883 28.4776 9.85987 29.2126 10.4228C29.9257 10.9697 30.3355 11.4203 30.617 11.9336C30.8984 12.4484 31.0632 13.0507 31.1493 13.9724C31.2382 14.9174 31.2397 16.1088 31.2397 17.7976V20.0157C31.2397 22.8886 31.2368 24.939 31.0355 26.4951C30.8372 28.0234 30.4624 28.9101 29.8397 29.5561C29.2199 30.1963 28.377 30.577 26.9172 30.7797C25.4209 30.9868 23.4478 30.9897 20.6667 30.9897H14.8334C12.0509 30.9897 10.0792 30.9868 8.583 30.7797C7.12321 30.5755 6.28029 30.1963 5.66196 29.5547C5.03779 28.9101 4.663 28.0234 4.46612 26.4951C4.26196 24.939 4.2605 22.8901 4.2605 20.0157V17.7976C4.2605 16.1088 4.2605 14.9174 4.35091 13.9724C4.43696 13.0507 4.60175 12.4484 4.88321 11.9336C5.16467 11.4203 5.57446 10.9697 6.28904 10.4228C7.02258 9.85987 8.00696 9.24883 9.40842 8.37821L12.3251 6.56842Z" fill="currentcolor"/>
    </symbol>
    <symbol
        id="icon-discover"
        viewBox="0 0 36 35" 
        fill="none"
    >
        <path d="M11.1829 24.5671L20.3821 19.6321L25.3171 10.4329L16.1179 15.3679L11.1829 24.5671ZM18.25 18.9583C17.8368 18.9583 17.4907 18.8183 17.2117 18.5383C16.9326 18.2583 16.7926 17.9122 16.7917 17.5C16.7917 17.0868 16.9317 16.7407 17.2117 16.4617C17.4917 16.1826 17.8378 16.0426 18.25 16.0417C18.6632 16.0417 19.0098 16.1817 19.2898 16.4617C19.5698 16.7417 19.7093 17.0878 19.7083 17.5C19.7083 17.9132 19.5683 18.2598 19.2883 18.5398C19.0083 18.8198 18.6622 18.9593 18.25 18.9583ZM18.2544 30.625C16.4402 30.625 14.734 30.2808 13.1356 29.5925C11.5383 28.9032 10.1485 27.9679 8.96625 26.7867C7.78403 25.6064 6.84826 24.2181 6.15896 22.6217C5.46965 21.0253 5.125 19.3195 5.125 17.5044C5.125 15.6902 5.46917 13.984 6.1575 12.3856C6.84681 10.7883 7.78208 9.39847 8.96333 8.21625C10.1436 7.03403 11.5319 6.09826 13.1283 5.40896C14.7247 4.71965 16.4305 4.375 18.2456 4.375C20.0598 4.375 21.766 4.71917 23.3644 5.4075C24.9617 6.09681 26.3515 7.03208 27.5337 8.21333C28.716 9.39361 29.6517 10.7819 30.341 12.3783C31.0303 13.9747 31.375 15.6805 31.375 17.4956C31.375 19.3098 31.0308 21.016 30.3425 22.6144C29.6532 24.2117 28.7179 25.6015 27.5367 26.7837C26.3564 27.966 24.9681 28.9017 23.3717 29.591C21.7753 30.2803 20.0695 30.625 18.2544 30.625ZM18.25 29.1667C21.5069 29.1667 24.2656 28.0365 26.526 25.776C28.7865 23.5156 29.9167 20.7569 29.9167 17.5C29.9167 14.2431 28.7865 11.4844 26.526 9.22396C24.2656 6.96354 21.5069 5.83333 18.25 5.83333C14.9931 5.83333 12.2344 6.96354 9.97396 9.22396C7.71354 11.4844 6.58333 14.2431 6.58333 17.5C6.58333 20.7569 7.71354 23.5156 9.97396 25.776C12.2344 28.0365 14.9931 29.1667 18.25 29.1667Z" fill="currentcolor"/>
    </symbol>               
    <symbol
        id="icon-albums"
        viewBox="0 0 36 35" 
        fill="none"
    >
        <path d="M18.25 22.6042C19.6801 22.6042 20.8886 22.1112 21.8754 21.1254C22.8612 20.1376 23.3542 18.9292 23.3542 17.5C23.3542 16.0699 22.8612 14.8614 21.8754 13.8746C20.8876 12.8888 19.6792 12.3958 18.25 12.3958C16.8199 12.3958 15.6114 12.8888 14.6246 13.8746C13.6388 14.8624 13.1458 16.0708 13.1458 17.5C13.1458 18.9301 13.6388 20.1386 14.6246 21.1254C15.6124 22.1112 16.8208 22.6042 18.25 22.6042ZM18.25 18.9583C17.8368 18.9583 17.4907 18.8183 17.2117 18.5383C16.9326 18.2583 16.7926 17.9122 16.7917 17.5C16.7917 17.0868 16.9317 16.7407 17.2117 16.4617C17.4917 16.1826 17.8378 16.0426 18.25 16.0417C18.6632 16.0417 19.0098 16.1817 19.2898 16.4617C19.5698 16.7417 19.7093 17.0878 19.7083 17.5C19.7083 17.9132 19.5683 18.2598 19.2883 18.5398C19.0083 18.8198 18.6622 18.9593 18.25 18.9583ZM18.2544 30.625C16.4402 30.625 14.734 30.2808 13.1356 29.5925C11.5383 28.9032 10.1485 27.9679 8.96625 26.7867C7.78403 25.6064 6.84826 24.2181 6.15896 22.6217C5.46965 21.0253 5.125 19.3195 5.125 17.5044C5.125 15.6902 5.46917 13.984 6.1575 12.3856C6.84681 10.7883 7.78208 9.39847 8.96333 8.21625C10.1436 7.03403 11.5319 6.09826 13.1283 5.40896C14.7247 4.71965 16.4305 4.375 18.2456 4.375C20.0598 4.375 21.766 4.71917 23.3644 5.4075C24.9617 6.09681 26.3515 7.03208 27.5337 8.21333C28.716 9.39361 29.6517 10.7819 30.341 12.3783C31.0303 13.9747 31.375 15.6805 31.375 17.4956C31.375 19.3098 31.0308 21.016 30.3425 22.6144C29.6532 24.2117 28.7179 25.6015 27.5367 26.7837C26.3564 27.966 24.9681 28.9017 23.3717 29.591C21.7753 30.2803 20.0695 30.625 18.2544 30.625ZM18.25 29.1667C21.5069 29.1667 24.2656 28.0365 26.526 25.776C28.7865 23.5156 29.9167 20.7569 29.9167 17.5C29.9167 14.2431 28.7865 11.4844 26.526 9.22396C24.2656 6.96354 21.5069 5.83333 18.25 5.83333C14.9931 5.83333 12.2344 6.96354 9.97396 9.22396C7.71354 11.4844 6.58333 14.2431 6.58333 17.5C6.58333 20.7569 7.71354 23.5156 9.97396 25.776C12.2344 28.0365 14.9931 29.1667 18.25 29.1667Z" fill="currentColor"/>
    </symbol>       
    <symbol 
        id="icon-library"
        viewBox="0 0 36 35" 
        fill="none"
    >
        <path d="M6.58341 4.375H8.04175C9.57883 4.375 10.8388 5.565 10.9511 7.07292L10.9584 7.29167V27.7083C10.9579 28.4438 10.6798 29.152 10.1795 29.6912C9.67928 30.2304 8.99389 30.5607 8.2605 30.6162L8.04175 30.625H6.58341C5.84767 30.6249 5.13913 30.3469 4.59964 29.8466C4.06016 29.3463 3.72956 28.6607 3.67404 27.9271L3.66675 27.7083V7.29167C3.66675 5.75458 4.85675 4.49458 6.36466 4.38229L6.58341 4.375ZM15.3334 4.375H16.7917C18.3288 4.375 19.5888 5.565 19.7011 7.07292L19.7084 7.29167V27.7083C19.7079 28.4438 19.4298 29.152 18.9295 29.6912C18.4293 30.2304 17.7439 30.5607 17.0105 30.6162L16.7917 30.625H15.3334C14.5977 30.6249 13.8891 30.3469 13.3496 29.8466C12.8102 29.3463 12.4796 28.6607 12.424 27.9271L12.4167 27.7083V7.29167C12.4167 5.75458 13.6067 4.49458 15.1147 4.38229L15.3334 4.375ZM25.5038 7.29167C26.7288 7.29167 27.8488 8.06604 28.2601 9.25458L28.3286 9.48354L32.7255 26.6131C32.9081 27.3256 32.8149 28.0807 32.4644 28.7273C32.1139 29.3738 31.5321 29.8642 30.8355 30.1L30.6255 30.1627L29.2124 30.5244C28.503 30.7055 27.7515 30.6136 27.1068 30.2668C26.462 29.92 25.9711 29.3436 25.7313 28.6519L25.6628 28.4258L21.2645 11.2977C21.0816 10.5847 21.175 9.82891 21.5261 9.18194C21.8772 8.53496 22.4599 8.04466 23.1574 7.80938L23.3659 7.74667L24.7776 7.385C25.0148 7.32335 25.2588 7.29199 25.5038 7.29167ZM8.04175 6.5625H6.58341C6.41283 6.56273 6.2477 6.62264 6.11665 6.73184C5.9856 6.84105 5.8969 6.99267 5.86591 7.16042L5.85425 7.29167V27.7083C5.85425 28.0642 6.11237 28.3646 6.45216 28.4258L6.58341 28.4375H8.04175C8.39904 28.4375 8.698 28.1779 8.75925 27.8396L8.77092 27.7083V7.29167C8.77069 7.12108 8.71078 6.95595 8.60157 6.8249C8.49237 6.69386 8.34075 6.60515 8.173 6.57417L8.04175 6.5625ZM16.7917 6.5625H15.3334C15.1628 6.56273 14.9977 6.62264 14.8667 6.73184C14.7356 6.84105 14.6469 6.99267 14.6159 7.16042L14.6042 7.29167V27.7083C14.6042 28.0642 14.8624 28.3646 15.2022 28.4258L15.3334 28.4375H16.7917C17.149 28.4375 17.448 28.1779 17.5092 27.8396L17.5209 27.7083V7.29167C17.5207 7.12108 17.4608 6.95595 17.3516 6.8249C17.2424 6.69386 17.0907 6.60515 16.923 6.57417L16.7917 6.5625ZM25.5053 9.47917L25.4134 9.485L25.3215 9.50396L23.9099 9.86417C23.7464 9.90522 23.6022 10.0019 23.5022 10.1376C23.4021 10.2733 23.3524 10.4396 23.3615 10.6079L23.3834 10.7538L27.7817 27.8819C27.8221 28.0381 27.9131 28.1766 28.0406 28.2755C28.1681 28.3745 28.3247 28.4284 28.4861 28.4287L28.578 28.4244L28.6684 28.4069L30.083 28.0423C30.248 27.9998 30.393 27.9008 30.4926 27.7625C30.5922 27.6242 30.6403 27.4554 30.6284 27.2854L30.6065 27.1571L26.2097 10.026C26.1691 9.86992 26.078 9.73161 25.9506 9.63268C25.8232 9.53376 25.6666 9.47978 25.5053 9.47917Z" fill="currentcolor"/>
    </symbol>
    <symbol
        id="icon-arrow"
        viewBox="0 0 20 21" 
        fill="none"
    >
        <path d="M12.9999 19.0452L14.3999 17.5423L6.9999 10.0282L14.3999 2.51405L12.9999 1.01122L3.9999 10.0282L12.9999 19.0452Z" fill="currentColor"/>
    </symbol>
</svg> 


