<svg width="16" height="16" viewBox="0 0 16 16" fill="none" xmlns="http://www.w3.org/2000/svg">
<path d="M14 12.998C14 13.1814 13.9496 13.3613 13.8542 13.5179C13.7588 13.6746 13.6222 13.802 13.4593 13.8862C13.2964 13.9705 13.1135 14.0083 12.9305 13.9955C12.7476 13.9828 12.5717 13.92 12.422 13.814L5.422 8.851C5.29197 8.75905 5.18578 8.63738 5.11227 8.49611C5.03875 8.35484 5.00004 8.19805 4.99936 8.0388C4.99867 7.87955 5.03603 7.72244 5.10833 7.58054C5.18062 7.43864 5.28576 7.31606 5.415 7.223L12.415 2.186C12.5643 2.07829 12.7405 2.01389 12.9241 1.99992C13.1077 1.98594 13.2916 2.02293 13.4555 2.1068C13.6194 2.19067 13.757 2.31817 13.8531 2.47525C13.9492 2.63232 14 2.81287 14 2.997L14 12.998ZM2 13.5C2 13.6326 2.05268 13.7598 2.14645 13.8536C2.24021 13.9473 2.36739 14 2.5 14C2.63261 14 2.75979 13.9473 2.85355 13.8536C2.94732 13.7598 3 13.6326 3 13.5L3 2.5C3 2.36739 2.94732 2.24021 2.85355 2.14645C2.75979 2.05268 2.63261 2 2.5 2C2.36739 2 2.24021 2.05268 2.14645 2.14645C2.05268 2.24021 2 2.36739 2 2.5L2 13.5Z" fill="#EE10B0"/>
</svg>
