<svg width="36" height="35" viewBox="0 0 36 35" fill="none" xmlns="http://www.w3.org/2000/svg">
<path d="M6.58341 4.375H8.04175C9.57883 4.375 10.8388 5.565 10.9511 7.07292L10.9584 7.29167V27.7083C10.9579 28.4438 10.6798 29.152 10.1795 29.6912C9.67928 30.2304 8.99389 30.5607 8.2605 30.6162L8.04175 30.625H6.58341C5.84767 30.6249 5.13913 30.3469 4.59964 29.8466C4.06016 29.3463 3.72956 28.6607 3.67404 27.9271L3.66675 27.7083V7.29167C3.66675 5.75458 4.85675 4.49458 6.36466 4.38229L6.58341 4.375ZM15.3334 4.375H16.7917C18.3288 4.375 19.5888 5.565 19.7011 7.07292L19.7084 7.29167V27.7083C19.7079 28.4438 19.4298 29.152 18.9295 29.6912C18.4293 30.2304 17.7439 30.5607 17.0105 30.6162L16.7917 30.625H15.3334C14.5977 30.6249 13.8891 30.3469 13.3496 29.8466C12.8102 29.3463 12.4796 28.6607 12.424 27.9271L12.4167 27.7083V7.29167C12.4167 5.75458 13.6067 4.49458 15.1147 4.38229L15.3334 4.375ZM25.5038 7.29167C26.7288 7.29167 27.8488 8.06604 28.2601 9.25458L28.3286 9.48354L32.7255 26.6131C32.9081 27.3256 32.8149 28.0807 32.4644 28.7273C32.1139 29.3738 31.5321 29.8642 30.8355 30.1L30.6255 30.1627L29.2124 30.5244C28.503 30.7055 27.7515 30.6136 27.1068 30.2668C26.462 29.92 25.9711 29.3436 25.7313 28.6519L25.6628 28.4258L21.2645 11.2977C21.0816 10.5847 21.175 9.82891 21.5261 9.18194C21.8772 8.53496 22.4599 8.04466 23.1574 7.80938L23.3659 7.74667L24.7776 7.385C25.0148 7.32335 25.2588 7.29199 25.5038 7.29167ZM8.04175 6.5625H6.58341C6.41283 6.56273 6.2477 6.62264 6.11665 6.73184C5.9856 6.84105 5.8969 6.99267 5.86591 7.16042L5.85425 7.29167V27.7083C5.85425 28.0642 6.11237 28.3646 6.45216 28.4258L6.58341 28.4375H8.04175C8.39904 28.4375 8.698 28.1779 8.75925 27.8396L8.77092 27.7083V7.29167C8.77069 7.12108 8.71078 6.95595 8.60157 6.8249C8.49237 6.69386 8.34075 6.60515 8.173 6.57417L8.04175 6.5625ZM16.7917 6.5625H15.3334C15.1628 6.56273 14.9977 6.62264 14.8667 6.73184C14.7356 6.84105 14.6469 6.99267 14.6159 7.16042L14.6042 7.29167V27.7083C14.6042 28.0642 14.8624 28.3646 15.2022 28.4258L15.3334 28.4375H16.7917C17.149 28.4375 17.448 28.1779 17.5092 27.8396L17.5209 27.7083V7.29167C17.5207 7.12108 17.4608 6.95595 17.3516 6.8249C17.2424 6.69386 17.0907 6.60515 16.923 6.57417L16.7917 6.5625ZM25.5053 9.47917L25.4134 9.485L25.3215 9.50396L23.9099 9.86417C23.7464 9.90522 23.6022 10.0019 23.5022 10.1376C23.4021 10.2733 23.3524 10.4396 23.3615 10.6079L23.3834 10.7538L27.7817 27.8819C27.8221 28.0381 27.9131 28.1766 28.0406 28.2755C28.1681 28.3745 28.3247 28.4284 28.4861 28.4287L28.578 28.4244L28.6684 28.4069L30.083 28.0423C30.248 27.9998 30.393 27.9008 30.4926 27.7625C30.5922 27.6242 30.6403 27.4554 30.6284 27.2854L30.6065 27.1571L26.2097 10.026C26.1691 9.86992 26.078 9.73161 25.9506 9.63268C25.8232 9.53376 25.6666 9.47978 25.5053 9.47917Z" fill="#0E9EEF"/>
</svg>
