<svg width="26" height="29" viewBox="0 0 26 29" fill="none" xmlns="http://www.w3.org/2000/svg">
<path fill-rule="evenodd" clip-rule="evenodd" d="M4.33325 8.45825C4.33325 7.49684 4.67566 6.57481 5.28515 5.89499C5.89465 5.21517 6.7213 4.83325 7.58325 4.83325H8.66658C9.52854 4.83325 10.3552 5.21517 10.9647 5.89499C11.5742 6.57481 11.9166 7.49684 11.9166 8.45825V20.5416C11.9166 21.503 11.5742 22.425 10.9647 23.1048C10.3552 23.7847 9.52854 24.1666 8.66658 24.1666H7.58325C6.7213 24.1666 5.89465 23.7847 5.28515 23.1048C4.67566 22.425 4.33325 21.503 4.33325 20.5416V8.45825ZM17.3333 4.83325C16.4713 4.83325 15.6446 5.21517 15.0352 5.89499C14.4257 6.57481 14.0833 7.49684 14.0833 8.45825V20.5416C14.0833 21.503 14.4257 22.425 15.0352 23.1048C15.6446 23.7847 16.4713 24.1666 17.3333 24.1666H18.4166C19.2785 24.1666 20.1052 23.7847 20.7147 23.1048C21.3242 22.425 21.6666 21.503 21.6666 20.5416V8.45825C21.6666 7.49684 21.3242 6.57481 20.7147 5.89499C20.1052 5.21517 19.2785 4.83325 18.4166 4.83325H17.3333Z" fill="#EE10B0"/>
</svg>
