<svg width="20" height="24" viewBox="0 0 20 24" fill="none" xmlns="http://www.w3.org/2000/svg">
<path fill-rule="evenodd" clip-rule="evenodd" d="M3.33325 7C3.33325 6.20435 3.59664 5.44129 4.06549 4.87868C4.53433 4.31607 5.17021 4 5.83325 4H6.66659C7.32963 4 7.96551 4.31607 8.43435 4.87868C8.90319 5.44129 9.16658 6.20435 9.16658 7V17C9.16658 17.7956 8.90319 18.5587 8.43435 19.1213C7.96551 19.6839 7.32963 20 6.66659 20H5.83325C5.17021 20 4.53433 19.6839 4.06549 19.1213C3.59664 18.5587 3.33325 17.7956 3.33325 17V7ZM13.3333 4C12.6702 4 12.0343 4.31607 11.5655 4.87868C11.0966 5.44129 10.8333 6.20435 10.8333 7V17C10.8333 17.7956 11.0966 18.5587 11.5655 19.1213C12.0343 19.6839 12.6702 20 13.3333 20H14.1666C14.8296 20 15.4655 19.6839 15.9344 19.1213C16.4032 18.5587 16.6666 17.7956 16.6666 17V7C16.6666 6.20435 16.4032 5.44129 15.9344 4.87868C15.4655 4.31607 14.8296 4 14.1666 4H13.3333Z" fill="white"/>
</svg>
