<svg width="23" height="22" viewBox="0 0 23 22" fill="none" xmlns="http://www.w3.org/2000/svg">
<path d="M0.0834961 21.9167V3.16675C0.0834961 2.59383 0.287663 2.10355 0.695996 1.69591C1.10433 1.28828 1.59461 1.08411 2.16683 1.08341H13.6252C14.1981 1.08341 14.6887 1.28758 15.097 1.69591C15.5054 2.10425 15.7092 2.59453 15.7085 3.16675V3.60946C15.2918 3.80043 14.9099 4.0348 14.5627 4.31258C14.2154 4.59036 13.9029 4.90286 13.6252 5.25008V3.16675H2.16683V15.6667H13.6252V11.5001C13.9029 11.8473 14.2154 12.1598 14.5627 12.4376C14.9099 12.7154 15.2918 12.9497 15.7085 13.1407V15.6667C15.7085 16.2397 15.5047 16.7303 15.097 17.1386C14.6894 17.547 14.1988 17.7508 13.6252 17.7501H4.25016L0.0834961 21.9167ZM4.25016 13.5834H8.41683V11.5001H4.25016V13.5834ZM17.7918 11.5001C16.9238 11.5001 16.1859 11.1963 15.5783 10.5886C14.9706 9.98098 14.6668 9.24314 14.6668 8.37508C14.6668 7.50703 14.9706 6.76918 15.5783 6.16154C16.1859 5.5539 16.9238 5.25008 17.7918 5.25008C17.9828 5.25008 18.1651 5.26744 18.3387 5.30216C18.5123 5.33689 18.6772 5.38029 18.8335 5.43237V0.041748H23.0002V2.12508H20.9168V8.37508C20.9168 9.24314 20.613 9.98098 20.0054 10.5886C19.3977 11.1963 18.6599 11.5001 17.7918 11.5001ZM4.25016 10.4584H11.5418V8.37508H4.25016V10.4584ZM4.25016 7.33341H11.5418V5.25008H4.25016V7.33341Z" fill="white"/>
</svg>
