<svg width="36" height="35" viewBox="0 0 36 35" fill="none" xmlns="http://www.w3.org/2000/svg">
<path d="M11.1829 24.5671L20.3821 19.6321L25.3171 10.4329L16.1179 15.3679L11.1829 24.5671ZM18.25 18.9583C17.8368 18.9583 17.4907 18.8183 17.2117 18.5383C16.9326 18.2583 16.7926 17.9122 16.7917 17.5C16.7917 17.0868 16.9317 16.7407 17.2117 16.4617C17.4917 16.1826 17.8378 16.0426 18.25 16.0417C18.6632 16.0417 19.0098 16.1817 19.2898 16.4617C19.5698 16.7417 19.7093 17.0878 19.7083 17.5C19.7083 17.9132 19.5683 18.2598 19.2883 18.5398C19.0083 18.8198 18.6622 18.9593 18.25 18.9583ZM18.2544 30.625C16.4402 30.625 14.734 30.2808 13.1356 29.5925C11.5383 28.9032 10.1485 27.9679 8.96625 26.7867C7.78403 25.6064 6.84826 24.2181 6.15896 22.6217C5.46965 21.0253 5.125 19.3195 5.125 17.5044C5.125 15.6902 5.46917 13.984 6.1575 12.3856C6.84681 10.7883 7.78208 9.39847 8.96333 8.21625C10.1436 7.03403 11.5319 6.09826 13.1283 5.40896C14.7247 4.71965 16.4305 4.375 18.2456 4.375C20.0598 4.375 21.766 4.71917 23.3644 5.4075C24.9617 6.09681 26.3515 7.03208 27.5337 8.21333C28.716 9.39361 29.6517 10.7819 30.341 12.3783C31.0303 13.9747 31.375 15.6805 31.375 17.4956C31.375 19.3098 31.0308 21.016 30.3425 22.6144C29.6532 24.2117 28.7179 25.6015 27.5367 26.7837C26.3564 27.966 24.9681 28.9017 23.3717 29.591C21.7753 30.2803 20.0695 30.625 18.2544 30.625ZM18.25 29.1667C21.5069 29.1667 24.2656 28.0365 26.526 25.776C28.7865 23.5156 29.9167 20.7569 29.9167 17.5C29.9167 14.2431 28.7865 11.4844 26.526 9.22396C24.2656 6.96354 21.5069 5.83333 18.25 5.83333C14.9931 5.83333 12.2344 6.96354 9.97396 9.22396C7.71354 11.4844 6.58333 14.2431 6.58333 17.5C6.58333 20.7569 7.71354 23.5156 9.97396 25.776C12.2344 28.0365 14.9931 29.1667 18.25 29.1667Z" fill="#0E9EEF"/>
</svg>
