<svg width="25" height="25" viewBox="0 0 25 25" fill="none" xmlns="http://www.w3.org/2000/svg">
<path d="M21.8752 3.125V16.1458C21.8752 17.1128 21.4911 18.0401 20.8073 18.7238C20.1236 19.4076 19.1963 19.7917 18.2293 19.7917C17.2624 19.7917 16.3351 19.4076 15.6513 18.7238C14.9676 18.0401 14.5835 17.1128 14.5835 16.1458C14.5835 15.1789 14.9676 14.2516 15.6513 13.5678C16.3351 12.8841 17.2624 12.5 18.2293 12.5C18.7918 12.5 19.3231 12.625 19.7918 12.8542V6.73958L9.37516 8.95833V18.2292C9.37516 19.1961 8.99105 20.1234 8.30732 20.8072C7.6236 21.4909 6.69626 21.875 5.72933 21.875C4.76239 21.875 3.83506 21.4909 3.15134 20.8072C2.46761 20.1234 2.0835 19.1961 2.0835 18.2292C2.0835 17.2622 2.46761 16.3349 3.15134 15.6512C3.83506 14.9674 4.76239 14.5833 5.72933 14.5833C6.29183 14.5833 6.82308 14.7083 7.29183 14.9375V6.25L21.8752 3.125Z" fill="white"/>
</svg>
