<svg width="15" height="15" viewBox="0 0 15 15" fill="none" xmlns="http://www.w3.org/2000/svg">
<path d="M13.125 1.875V9.6875C13.125 10.2677 12.8945 10.8241 12.4843 11.2343C12.0741 11.6445 11.5177 11.875 10.9375 11.875C10.3573 11.875 9.80094 11.6445 9.3907 11.2343C8.98047 10.8241 8.75 10.2677 8.75 9.6875C8.75 9.10734 8.98047 8.55094 9.3907 8.1407C9.80094 7.73047 10.3573 7.5 10.9375 7.5C11.275 7.5 11.5938 7.575 11.875 7.7125V4.04375L5.625 5.375V10.9375C5.625 11.5177 5.39453 12.0741 4.9843 12.4843C4.57406 12.8945 4.01766 13.125 3.4375 13.125C2.85734 13.125 2.30094 12.8945 1.8907 12.4843C1.48047 12.0741 1.25 11.5177 1.25 10.9375C1.25 10.3573 1.48047 9.80094 1.8907 9.3907C2.30094 8.98047 2.85734 8.75 3.4375 8.75C3.775 8.75 4.09375 8.825 4.375 8.9625V3.75L13.125 1.875Z" fill="#EE10B0"/>
</svg>
