<svg width="35" height="35" viewBox="0 0 35 35" fill="none" xmlns="http://www.w3.org/2000/svg">
<g clip-path="url(#clip0_212_458)">
<path d="M17.5 0C22.1413 0 26.5925 1.84374 29.8744 5.12563C33.1563 8.40752 35 12.8587 35 17.5C35 22.1413 33.1563 26.5925 29.8744 29.8744C26.5925 33.1563 22.1413 35 17.5 35C12.8587 35 8.40752 33.1563 5.12563 29.8744C1.84374 26.5925 0 22.1413 0 17.5C0 12.8587 1.84374 8.40752 5.12563 5.12563C8.40752 1.84374 12.8587 0 17.5 0ZM3.28125 17.5C3.28125 21.271 4.77929 24.8876 7.44583 27.5542C10.1124 30.2207 13.729 31.7188 17.5 31.7188C21.271 31.7188 24.8876 30.2207 27.5542 27.5542C30.2207 24.8876 31.7188 21.271 31.7188 17.5C31.7188 13.729 30.2207 10.1124 27.5542 7.44583C24.8876 4.77929 21.271 3.28125 17.5 3.28125C13.729 3.28125 10.1124 4.77929 7.44583 7.44583C4.77929 10.1124 3.28125 13.729 3.28125 17.5ZM13.9541 11.4341L23.2816 17.0319C23.3622 17.0806 23.4288 17.1492 23.4751 17.2312C23.5214 17.3133 23.5457 17.4058 23.5457 17.5C23.5457 17.5942 23.5214 17.6867 23.4751 17.7688C23.4288 17.8508 23.3622 17.9194 23.2816 17.9681L13.9541 23.5659C13.8711 23.6159 13.7764 23.6429 13.6796 23.6443C13.5828 23.6457 13.4873 23.6213 13.403 23.5737C13.3187 23.5261 13.2485 23.4569 13.1997 23.3733C13.1508 23.2897 13.1251 23.1946 13.125 23.0978V11.9044C13.1247 11.8074 13.1502 11.712 13.1988 11.6281C13.2475 11.5442 13.3176 11.4747 13.402 11.4268C13.4864 11.379 13.582 11.3544 13.679 11.3557C13.776 11.3569 13.871 11.384 13.9541 11.4341Z" fill="#0E9EEF"/>
</g>
<defs>
<clipPath id="clip0_212_458">
<rect width="35" height="35" fill="white"/>
</clipPath>
</defs>
</svg>
