<svg width="40" height="40" viewBox="0 0 40 40" fill="none" xmlns="http://www.w3.org/2000/svg">
<path d="M5.3125 10C5.3125 9.75136 5.41127 9.5129 5.58709 9.33709C5.7629 9.16127 6.00136 9.0625 6.25 9.0625H33.75C33.9986 9.0625 34.2371 9.16127 34.4129 9.33709C34.5887 9.5129 34.6875 9.75136 34.6875 10C34.6875 10.2486 34.5887 10.4871 34.4129 10.6629C34.2371 10.8387 33.9986 10.9375 33.75 10.9375H6.25C6.00136 10.9375 5.7629 10.8387 5.58709 10.6629C5.41127 10.4871 5.3125 10.2486 5.3125 10ZM21.25 19.0625H6.25C6.00136 19.0625 5.7629 19.1613 5.58709 19.3371C5.41127 19.5129 5.3125 19.7514 5.3125 20C5.3125 20.2486 5.41127 20.4871 5.58709 20.6629C5.7629 20.8387 6.00136 20.9375 6.25 20.9375H21.25C21.4986 20.9375 21.7371 20.8387 21.9129 20.6629C22.0887 20.4871 22.1875 20.2486 22.1875 20C22.1875 19.7514 22.0887 19.5129 21.9129 19.3371C21.7371 19.1613 21.4986 19.0625 21.25 19.0625ZM21.25 29.0625H6.25C6.00136 29.0625 5.7629 29.1613 5.58709 29.3371C5.41127 29.5129 5.3125 29.7514 5.3125 30C5.3125 30.2486 5.41127 30.4871 5.58709 30.6629C5.7629 30.8387 6.00136 30.9375 6.25 30.9375H21.25C21.4986 30.9375 21.7371 30.8387 21.9129 30.6629C22.0887 30.4871 22.1875 30.2486 22.1875 30C22.1875 29.7514 22.0887 29.5129 21.9129 29.3371C21.7371 29.1613 21.4986 29.0625 21.25 29.0625ZM38.4375 25C38.4376 25.1591 38.3971 25.3155 38.3201 25.4546C38.243 25.5938 38.1318 25.711 37.9969 25.7953L27.9969 32.0453C27.8549 32.134 27.6918 32.1831 27.5245 32.1875C27.3572 32.1919 27.1918 32.1514 27.0454 32.0702C26.899 31.9891 26.777 31.8702 26.6921 31.7259C26.6072 31.5817 26.5624 31.4174 26.5625 31.25V18.75C26.5624 18.5826 26.6072 18.4183 26.6921 18.2741C26.777 18.1298 26.899 18.0109 27.0454 17.9298C27.1918 17.8486 27.3572 17.8081 27.5245 17.8125C27.6918 17.8169 27.8549 17.866 27.9969 17.9547L37.9969 24.2047C38.1318 24.289 38.243 24.4062 38.3201 24.5454C38.3971 24.6845 38.4376 24.8409 38.4375 25ZM35.7312 25L28.4375 20.4422V29.5578L35.7312 25Z" fill="#EE10B0"/>
</svg>
