<svg width="35" height="35" viewBox="0 0 35 35" fill="none" xmlns="http://www.w3.org/2000/svg">
<path fill-rule="evenodd" clip-rule="evenodd" d="M20.9781 22.5254C19.0125 24.0959 16.5202 24.8542 14.013 24.6445C11.5057 24.4347 9.17401 23.273 7.49663 21.3977C5.81925 19.5225 4.92358 17.0762 4.99356 14.5612C5.06354 12.0462 6.09386 9.65344 7.87292 7.87438C9.65197 6.09533 12.0447 5.065 14.5597 4.99502C17.0747 4.92504 19.521 5.82072 21.3963 7.4981C23.2715 9.17547 24.4333 11.5072 24.643 14.0144C24.8527 16.5216 24.0945 19.014 22.524 20.9796L30.0431 28.4973C30.1506 28.5974 30.2368 28.7182 30.2966 28.8523C30.3563 28.9865 30.3885 29.1313 30.3911 29.2782C30.3937 29.4251 30.3666 29.5709 30.3116 29.7071C30.2566 29.8433 30.1747 29.967 30.0709 30.0709C29.967 30.1748 29.8433 30.2566 29.7071 30.3116C29.5709 30.3666 29.4251 30.3937 29.2782 30.3911C29.1313 30.3885 28.9865 30.3563 28.8523 30.2966C28.7182 30.2368 28.5974 30.1506 28.4973 30.0431L20.9781 22.5254ZM9.41937 20.2475C8.34901 19.177 7.62001 17.8133 7.32449 16.3286C7.02898 14.844 7.18021 13.305 7.75908 11.9063C8.33794 10.5075 9.31847 9.31179 10.5767 8.47015C11.835 7.62851 13.3145 7.17877 14.8283 7.17775C16.3421 7.17673 17.8222 7.62449 19.0816 8.46443C20.341 9.30437 21.3231 10.4988 21.9039 11.8968C22.4846 13.2947 22.6379 14.8335 22.3444 16.3185C22.0509 17.8036 21.3237 19.1683 20.2548 20.2402L20.2475 20.2475L20.2402 20.2533C18.8039 21.6863 16.8575 22.4906 14.8286 22.4895C12.7997 22.4884 10.8541 21.682 9.41937 20.2475Z" fill="#0E9EEF"/>
</svg>
