<svg width="36" height="35" viewBox="0 0 36 35" fill="none" xmlns="http://www.w3.org/2000/svg">
<path d="M16.6562 26.25C16.6562 26.5401 16.7715 26.8183 16.9766 27.0234C17.1817 27.2285 17.4599 27.3438 17.75 27.3438C18.0401 27.3438 18.3183 27.2285 18.5234 27.0234C18.7285 26.8183 18.8438 26.5401 18.8438 26.25V21.875C18.8438 21.5849 18.7285 21.3067 18.5234 21.1016C18.3183 20.8965 18.0401 20.7812 17.75 20.7812C17.4599 20.7812 17.1817 20.8965 16.9766 21.1016C16.7715 21.3067 16.6562 21.5849 16.6562 21.875V26.25Z" fill="#EE10B0"/>
<path fill-rule="evenodd" clip-rule="evenodd" d="M17.7501 1.823C16.7176 1.823 15.7799 2.11904 14.7605 2.61341C13.7776 3.09175 12.6401 3.79758 11.2211 4.67842L8.20675 6.54946C6.86508 7.38362 5.78737 8.05154 4.95904 8.68592C4.10008 9.34217 3.44091 10.013 2.96404 10.8836C2.48862 11.7513 2.27571 12.6759 2.17216 13.7682C2.073 14.8255 2.073 16.1205 2.073 17.7436V20.0959C2.073 22.8726 2.073 25.0645 2.29612 26.778C2.52362 28.5353 3.00487 29.9543 4.08987 31.0757C5.17925 32.203 6.56467 32.7076 8.28258 32.9453C9.94508 33.1772 12.0713 33.1772 14.7488 33.1772H20.7513C23.4288 33.1772 25.5551 33.1772 27.2176 32.9453C28.934 32.7076 30.3209 32.203 31.4118 31.0757C32.4953 29.9543 32.9765 28.5353 33.2055 26.778C33.4272 25.0645 33.4272 22.8726 33.4272 20.0959V17.7436C33.4272 16.1205 33.4272 14.827 33.328 13.7682C33.2259 12.6745 33.0115 11.7513 32.5361 10.8836C32.0593 10.013 31.3986 9.34362 30.5411 8.68592C29.7128 8.05008 28.6365 7.38362 27.2934 6.54946L24.279 4.67842C22.8601 3.79758 21.7226 3.09175 20.7382 2.61341C19.7218 2.11758 18.784 1.823 17.7501 1.823ZM12.3251 6.56842C13.8053 5.64967 14.848 5.00508 15.7186 4.58071C16.5659 4.168 17.1667 4.0105 17.7501 4.0105C18.3334 4.0105 18.9342 4.168 19.7815 4.58071C20.6536 5.00362 21.6949 5.64967 23.1751 6.56842L26.0917 8.37821C27.4932 9.24883 28.4776 9.85987 29.2126 10.4228C29.9257 10.9697 30.3355 11.4203 30.617 11.9336C30.8984 12.4484 31.0632 13.0507 31.1493 13.9724C31.2382 14.9174 31.2397 16.1088 31.2397 17.7976V20.0157C31.2397 22.8886 31.2368 24.939 31.0355 26.4951C30.8372 28.0234 30.4624 28.9101 29.8397 29.5561C29.2199 30.1963 28.377 30.577 26.9172 30.7797C25.4209 30.9868 23.4478 30.9897 20.6667 30.9897H14.8334C12.0509 30.9897 10.0792 30.9868 8.583 30.7797C7.12321 30.5755 6.28029 30.1963 5.66196 29.5547C5.03779 28.9101 4.663 28.0234 4.46612 26.4951C4.26196 24.939 4.2605 22.8901 4.2605 20.0157V17.7976C4.2605 16.1088 4.2605 14.9174 4.35091 13.9724C4.43696 13.0507 4.60175 12.4484 4.88321 11.9336C5.16467 11.4203 5.57446 10.9697 6.28904 10.4228C7.02258 9.85987 8.00696 9.24883 9.40842 8.37821L12.3251 6.56842Z" fill="#EE10B0"/>
</svg>
